Coordinates
version=1
nRows=11
nColumns=40
inDegrees=yes

Units are S.I. units (second, meters, Newtons, ...)
If the header above contains a line with 'inDegrees', this indicates whether rotational values are in degrees (yes) or radians (no).

endheader
time	pelvis_tilt	pelvis_list	pelvis_rotation	pelvis_tx	pelvis_ty	pelvis_tz	hip_flexion_r	hip_adduction_r	hip_rotation_r	knee_angle_r	knee_angle_r_beta	ankle_angle_r	subtalar_angle_r	mtp_angle_r	hip_flexion_l	hip_adduction_l	hip_rotation_l	knee_angle_l	knee_angle_l_beta	ankle_angle_l	subtalar_angle_l	mtp_angle_l	lumbar_extension	lumbar_bending	lumbar_rotation	arm_flex_r	arm_add_r	arm_rot_r	elbow_flex_r	pro_sup_r	wrist_flex_r	wrist_dev_r	arm_flex_l	arm_add_l	arm_rot_l	elbow_flex_l	pro_sup_l	wrist_flex_l	wrist_dev_l
      3.69500000	    -31.59112724	     -1.55150346	     -2.16680504	     -0.43750437	      0.67891804	     -0.91022788	     87.97340151	    -10.86115130	      3.26238865	     93.30017312	      1.62839521	     35.65396346	      0.00000000	      0.00000000	     90.44307766	    -19.42801444	      8.87550651	     91.97871622	      1.60533144	     33.44197173	      0.00000000	      0.00000000	    -19.49240149	      1.34216696	      4.89361263	      7.49811843	    -55.29745419	     73.45038809	     92.94861649	     84.52222545	      0.00000000	      0.00000000	    -10.40321512	    -49.38696615	     46.57984385	     96.54609115	     88.00747535	      0.00000000	      0.00000000
      3.70000000	    -31.64064337	     -1.56824418	     -2.17635318	     -0.43772897	      0.67890864	     -0.91014133	     88.02003030	    -10.82370270	      3.25743853	     93.25540966	      1.62761394	     35.66746182	      0.00000000	      0.00000000	     90.50848664	    -19.39124126	      8.97994881	     91.96765845	      1.60513845	     33.32254497	      0.00000000	      0.00000000	    -19.44152354	      1.36495061	      4.33187177	      9.39977218	    -55.14688969	     75.41783165	     92.81927528	     86.75525666	      0.00000000	      0.00000000	    -11.58340701	    -49.21494545	     45.38121411	     96.68746825	     87.66983264	      0.00000000	      0.00000000
      3.70500000	    -31.63959088	     -1.64220669	     -2.17560882	     -0.43781731	      0.67893797	     -0.91007958	     87.98335859	    -10.83441383	      3.12718062	     93.23220177	      1.62720889	     35.72724194	      0.00000000	      0.00000000	     90.55394578	    -19.41032035	      9.05278461	     91.96187500	      1.60503751	     33.29144436	      0.00000000	      0.00000000	    -19.45358979	      1.43617326	      4.49130392	      9.17659623	    -55.18810172	     75.24601596	     92.82947472	     86.53280559	      0.00000000	      0.00000000	    -11.18890842	    -49.25371085	     45.84005078	     96.59188440	     87.74377300	      0.00000000	      0.00000000
      3.71000000	    -31.59557756	     -1.61216414	     -2.17755553	     -0.43787374	      0.67899530	     -0.91001590	     87.96074075	    -10.82414011	      3.16928878	     93.23744008	      1.62730032	     35.71924920	      0.00000000	      0.00000000	     90.48925478	    -19.43487992	      8.98922876	     91.94594634	      1.60475950	     33.33349336	      0.00000000	      0.00000000	    -19.51876608	      1.40653008	      4.08490900	     10.33782140	    -55.07460982	     76.49400045	     92.77051169	     86.69013397	      0.00000000	      0.00000000	    -12.16526446	    -49.12430051	     44.76075662	     96.68870257	     87.69250265	      0.00000000	      0.00000000
      3.71500000	    -31.60723415	     -1.67103007	     -2.17957360	     -0.43795838	      0.67895286	     -0.90994177	     87.95415036	    -10.80284668	      3.11009146	     93.22528690	      1.62708820	     35.71694348	      0.00000000	      0.00000000	     90.54331619	    -19.44680662	      9.06256345	     91.95149095	      1.60485627	     33.31983877	      0.00000000	      0.00000000	    -19.51990533	      1.46118165	      4.14077689	     10.28564738	    -55.09147811	     76.48237065	     92.77434213	     86.37136046	      0.00000000	      0.00000000	    -12.08573313	    -49.12934403	     44.85496674	     96.66788302	     87.79627999	      0.00000000	      0.00000000
      3.72000000	    -31.55866660	     -1.58628442	     -2.18911136	     -0.43798509	      0.67901557	     -0.90994441	     87.94519293	    -10.76642630	      3.29365746	     93.27272572	      1.62791617	     35.70342687	      0.00000000	      0.00000000	     90.44344124	    -19.36891639	      9.10129583	     91.93775695	      1.60461657	     33.30660736	      0.00000000	      0.00000000	    -19.58497266	      1.36185239	      4.15509818	     10.26133427	    -55.09849890	     76.50675126	     92.79021626	     85.87189640	      0.00000000	      0.00000000	    -11.93320812	    -49.16186038	     44.97008658	     96.59333939	     87.92383719	      0.00000000	      0.00000000
      3.72500000	    -31.51386447	     -1.57723335	     -2.20566844	     -0.43801986	      0.67910589	     -0.90985208	     87.91551845	    -10.81189748	      3.16848324	     93.27535180	      1.62796200	     35.63687067	      0.00000000	      0.00000000	     90.38694311	    -19.46610650	      8.96886127	     91.92020467	      1.60431022	     33.45556816	      0.00000000	      0.00000000	    -19.68470654	      1.31231329	      4.39550174	      9.54967416	    -55.16458307	     75.70688822	     92.85350179	     85.52666608	      0.00000000	      0.00000000	    -11.52378009	    -49.23767705	     45.38092746	     96.65832677	     87.95416787	      0.00000000	      0.00000000
      3.73000000	    -31.58760365	     -1.64260353	     -2.20640675	     -0.43824150	      0.67904594	     -0.90982621	     87.96276929	    -10.78724853	      3.11817772	     93.21675178	      1.62693924	     35.65477764	      0.00000000	      0.00000000	     90.51405419	    -19.45893086	      9.05332454	     91.92178508	      1.60433780	     33.24900142	      0.00000000	      0.00000000	    -19.57578748	      1.39376385	      4.61830537	      9.32635391	    -55.20045805	     75.64440271	     92.82238678	     85.75075825	      0.00000000	      0.00000000	    -10.83217125	    -49.33401570	     46.28394757	     96.51809759	     87.84284677	      0.00000000	      0.00000000
      3.73500000	    -31.58662705	     -1.57427576	     -2.22316494	     -0.43836683	      0.67914108	     -0.90983612	     87.98555000	    -10.78286698	      3.19178259	     93.19102596	      1.62649024	     35.62315220	      0.00000000	      0.00000000	     90.47097074	    -19.43686104	      9.00072046	     91.89176194	      1.60381380	     33.25669570	      0.00000000	      0.00000000	    -19.60673231	      1.30937851	      4.71554004	      9.04856407	    -55.19649011	     75.31759846	     92.80335880	     86.15703463	      0.00000000	      0.00000000	    -10.60853936	    -49.35341332	     46.46946962	     96.49320815	     87.80658641	      0.00000000	      0.00000000
      3.74000000	    -31.64059126	     -1.52452573	     -2.24808528	     -0.43862240	      0.67904228	     -0.90976658	     88.08221586	    -10.73439270	      3.28671735	     93.18462905	      1.62637859	     35.60369928	      0.00000000	      0.00000000	     90.51925372	    -19.44549512	      8.96451754	     91.86243919	      1.60330202	     33.36084557	      0.00000000	      0.00000000	    -19.59274847	      1.25448625	      4.22600086	     10.36459429	    -55.08648586	     76.64818993	     92.73903396	     86.69350650	      0.00000000	      0.00000000	    -11.89985664	    -49.17907115	     45.06009672	     96.62377551	     87.69282726	      0.00000000	      0.00000000
      3.74500000	    -31.60628511	     -1.39055711	     -2.28268188	     -0.43874712	      0.67915559	     -0.90982111	     88.10863327	    -10.73986311	      3.43542515	     93.17813186	      1.62626519	     35.54149188	      0.00000000	      0.00000000	     90.38952498	    -19.44816964	      8.79498032	     91.82452630	      1.60264032	     33.37744615	      0.00000000	      0.00000000	    -19.68344553	      1.09084469	      4.57545594	      9.26662272	    -55.20700637	     75.47987474	     92.83049603	     85.49097731	      0.00000000	      0.00000000	    -11.17408648	    -49.34844181	     45.80272866	     96.73421080	     87.98773312	      0.00000000	      0.00000000
